


<svg version="1.1" baseProfile="tiny" id="Layer_1" xmlns="http://www.w3.org/2000/svg" xmlns:xlink="http://www.w3.org/1999/xlink" x="0px" y="0px" viewBox="427.6 527.8 984.3 246.5" xml:space="preserve">
<g id="Layer_1_1_">
	<g>
		<path fill="#FFFFFF" d="M1363.4,650.2l3.1-5.5c0,0-2.2-3.2-6.3-6.6h6.3l-1.5-8.6h-11l1.5,5.4c-3.4-2-7.6-3.8-12.6-4.5V625l-52,4.6
			v11.8h19.1c-11.2,10.8-10.9,24.8-10.9,24.8l5.5,1.7c-0.1,1.1-0.2,2.2-0.2,3.4c0,18.3,14.9,33.1,33.3,33.1
			c18.3,0,33.3-14.8,33.3-33.1C1371,663.4,1368.1,655.9,1363.4,650.2z M1337.7,695.2c-13.3,0-24.1-10.7-24.1-23.9
			c0-10.2,6.5-19,15.6-22.3l4.2,15.4c-2.4,1.5-4,4-4,7c0,4.5,3.7,8.1,8.2,8.1s8.2-3.7,8.2-8.1c0-3.9-2.7-7.2-6.3-7.9l-4.3-15.9
			c0.8-0.1,1.7-0.1,2.5-0.1c13.3,0,24.1,10.7,24.1,23.9C1361.8,684.6,1350.9,695.2,1337.7,695.2z"></path>
		<path fill="#FFFFFF" d="M1238.4,641.1l14.7-25.9h14.9V609h-18.5l-16.2,28.6c-14.2-7.6-30.2-1.8-30.2-1.8l0.6,5.6
			c-11.4,5.3-19.3,16.7-19.3,30c0,18.3,14.9,33.1,33.3,33.1c18.3,0,33.3-14.8,33.3-33.1c0-1.5-0.1-2.9-0.3-4.3l3.2-0.9
			c0,0,2.1-8.1-13.3-23.4C1239.9,642.1,1239.2,641.5,1238.4,641.1z M1217.7,695.2c-13.3,0-24.1-10.7-24.1-23.9s10.8-23.9,24.1-23.9
			c3.2,0,6.2,0.7,9,1.8l-8,14.1c-0.3,0-0.6-0.1-1-0.1c-4.5,0-8.2,3.7-8.2,8.1c0,4.5,3.7,8.1,8.2,8.1s8.2-3.7,8.2-8.1
			c0-1.9-0.7-3.7-1.8-5.1l8-14.1c5.9,4.4,9.7,11.3,9.7,19.2C1241.8,684.5,1231,695.2,1217.7,695.2z"></path>
		<path fill="#FFFFFF" d="M1279.1,646.9h20.5c-4.1,5.5-8.2,16.3-8.2,16.3L1279.1,646.9z"></path>
		<polygon fill="#FFFFFF" points="1254.4,657.5 1270.8,645 1273.5,648.6 1257.2,661 		"></polygon>
		<polygon fill="#FFFFFF" points="1258.6,662.7 1274.8,650.3 1277.6,653.8 1261.3,666.2 		"></polygon>
		<path fill="#FFFFFF" d="M1299.1,668.2c0,12.2,5.1,20.9,5.1,20.9s-23.1,0-30.7,0s-8.2-6.2-8.2-6.2v-11.5l-2.7-3.5l16.3-12.4l9,12.7
			H1299.1z"></path>
		<path fill="#FFFFFF" d="M1227.5,633.5v-21.6c6.1,0,11,4.9,11,10.8S1233.6,633.6,1227.5,633.5z"></path>
		<path fill="#FFFFFF" d="M1253.4,618.9c0,0,19,0.5,34.9,10.7v12.2h-42l-3.6-3.6L1253.4,618.9z"></path>
	</g>
	<path fill="#2BADE3" d="M551.9,655.7c0-64.5-90.9-45-90.9-81.2c0-15.6,16.7-20.3,33.1-20.3c8.9,0,30.6,3.2,53.1,9.6v-26
		c-13.9-4.7-34.7-9.2-53.9-9.2c-33.3,0-63.4,13.6-63.4,49.2c0,62.3,90.9,41.4,90.9,80c0,16.7-17,21.1-35,21.1
		c-12.8,0-23.1-2.2-29.2-3.6l-28.9-6.9v26.9c16.1,4.2,37.8,9.2,60,9.2C521.6,704.6,551.9,692.6,551.9,655.7z"></path>
	<path fill="#2BADE3" d="M705.3,605.9h29.8v-24.7h-29.8v-8.6c0-17.2,10.6-20.6,22.5-20.6c4.7,0,10.6,0.6,15.3,1.4v-23.1
		c-7.8-1.4-15.6-2.5-23.3-2.5c-25,0-45.9,11.1-45.9,44.2v129.2h31.4V605.9L705.3,605.9z"></path>
	<path fill="#2BADE3" d="M790.5,704.3c19.5,0,33.9-5.6,43.4-10.8v-24.2c-9.4,5-22.2,11.1-38.6,11.1c-21.7,0-33.1-10.3-36.1-29.2
		h81.2c0.8-4.4,1.1-9.2,1.1-13.3c0-33.1-17.2-59.8-55-59.8c-38.1,0-58.9,26.7-58.9,63.1C727.4,677.6,748.3,704.3,790.5,704.3z
		 M786.9,600.9c18.3,0,23.9,14.2,25,28.3h-53.1C761.1,614.2,768.8,600.9,786.9,600.9z"></path>
	<path fill="#2BADE3" d="M977.4,655.7c0-19.2-11.1-34.7-37-41.1c23.6-7.2,32-22.2,32-38.4c0-28.1-25.6-44.2-63.1-44.2h-61.4v169.3
		h65C954.9,701.2,977.4,683.2,977.4,655.7z M879.6,557.2h29.7c18.9,0,31.1,7.8,31.1,22.5c0,15-12.2,23.3-33.4,23.3h-27.5v-45.8
		H879.6L879.6,557.2z M879.6,676v-48.4h31.7c22.5,0,33.9,9.7,33.9,24.5c0,15.6-12.5,23.9-33.1,23.9H879.6z"></path>
	<path fill="#2BADE3" d="M1017.4,704c17.9,0,30.1-8.6,37.8-16.6V701h29.5v-78.4c0-32.6-18.2-43.9-50.2-43.9
		c-17.1,0-32.4,3.3-43.2,6.6v23.2c9.1-2.8,22.2-6.1,36.6-6.1c19.9,0,25.7,6.3,25.7,20.7v7.4h-19.7c-30.9,0-55.5,8.3-55.5,37
		C978.4,691.1,995,704,1017.4,704z M1035.3,649.9h18.2v19c-6.3,6.6-15.2,13-26.8,13c-13.5,0-17.1-8.3-17.1-15.7
		C1009.6,654.1,1019,649.9,1035.3,649.9z"></path>
	<path fill="#2BADE3" d="M1202.9,581.2h-18.7h-11.6l-26.1,80.2l-38.2-80.2H1077l56.4,120.1l-1.9,6.1l-9.7,29.1
		c-1.6,4.9-3.9,8.2-6.5,10.2c-3.8,3.1-8.3,3.7-12.1,3.7c-6,0-10.9-1.6-15.4-3.7c-1.7-0.8-3.3-1.6-4.9-2.5l-1,2.5l-7.8,18.4
		c8.6,5.3,21.1,9.2,33.6,9.2c20,0,31.8-9.9,39.3-27.6c0.9-2,1.7-4.1,2.4-6.4l6.1-18.4l39.1-116h191.1v-24.7L1202.9,581.2
		L1202.9,581.2z"></path>
	<path fill="#2BADE3" d="M1164.2,728.6c-0.7,2.2-1.5,4.3-2.4,6.4h223.8v-24.7h-215.2L1164.2,728.6z"></path>
	<polygon fill="#2BADE3" points="1121.3,710.2 427.6,710.2 427.6,735 1113,735 	"></polygon>
	<g>
		<g>
			<path fill="#FFFFFF" d="M659.4,623.5c-1.2-25.3-22-45.4-47.5-45.6l0,0c-0.1,0-0.1,0-0.2,0c0,0-0.1,0-0.2,0l0,0
				c-25.5,0.2-46.3,20.3-47.5,45.6c-5.5,0.9-9.7,5.6-9.7,11.4V690c0,6.4,5.2,11.5,11.5,11.5h91.7c6.4,0,11.5-5.2,11.5-11.5v-55.1
				C669.1,629.2,664.9,624.4,659.4,623.5z M619.2,681.6h-15c-0.8,0-1.4-0.6-1.4-1.3c0-0.1,0-0.3,0-0.3l5.6-23.5
				c-1.3-0.6-2.5-1.6-3.3-2.8c-0.1-0.1-0.1-0.2-0.2-0.3s-0.2-0.3-0.2-0.4c-0.6-1.1-0.9-2.3-0.9-3.7c0-4.3,3.5-7.8,7.8-7.8
				c4.3,0,7.8,3.5,7.8,7.8c0,1.1-0.2,2.1-0.6,3.1c0,0.1-0.1,0.2-0.1,0.3l-0.1,0.1c-0.8,1.6-2,2.8-3.5,3.6l3.7,16.4l1.6,7
				c0,0.1,0.1,0.1,0.1,0.2c0,0.1,0,0.1,0,0.2C620.6,680.9,619.9,681.6,619.2,681.6z M585.8,623.4c1.3-13.3,12.4-23.6,26-23.7
				c13.6,0.1,24.7,10.5,26,23.7H585.8z"></path>
		</g>
	</g>
	<circle fill="none" stroke="#2BADE3" stroke-width="2" stroke-miterlimit="10" cx="1400.7" cy="722.6" r="10.2"></circle>
	<text transform="matrix(1 0 0 1 1393.3784 726.7173)" fill="#2BADE3" font-family="'ArialMT'" font-size="12px">TM</text>
	
		<text transform="matrix(1 0 0 1 1393.3784 726.7173)" fill="none" stroke="#2BADE3" stroke-miterlimit="10" font-family="'ArialMT'" font-size="12px">TM</text>
</g>
</svg>